Coordinates
version=1
nRows=17
nColumns=24
inDegrees=yes

Units are S.I. units (second, meters, Newtons, ...)
Angles are in degrees.

endheader
time	pelvis_tilt	pelvis_list	pelvis_rotation	pelvis_tx	pelvis_ty	pelvis_tz	hip_flexion_r	hip_adduction_r	hip_rotation_r	knee_angle_r	ankle_angle_r	subtalar_angle_r	mtp_angle_r	hip_flexion_l	hip_adduction_l	hip_rotation_l	knee_angle_l	ankle_angle_l	subtalar_angle_l	mtp_angle_l	lumbar_extension	lumbar_bending	lumbar_rotation
      6.47000000	     -0.46354083	      3.16660632	     15.40189971	      0.99487422	      0.63443227	     -0.19012962	     27.73745743	    -10.18642156	    -12.39991906	     -9.40189855	     -2.80792023	    -20.38257893	      0.00000000	    -23.38001543	     -1.03984576	     21.15164764	     -5.30239034	     26.30782558	     -5.23352294	      0.00000000	    -13.44806392	     -1.68966944	    -20.46566366
      6.48000000	     -0.75831938	      2.59361741	     15.23024164	      1.00676104	      0.63220873	     -0.18806886	     29.18365563	     -9.61606098	    -11.66351887	    -12.77086427	     -5.13643918	    -22.56625362	      0.00000000	    -23.63034011	     -1.83447058	     20.84232070	     -5.96761544	     25.75061802	     -5.32706026	      0.00000000	    -13.00630180	     -1.10027607	    -20.36378576
      6.49000000	     -1.01418076	      1.88030500	     14.75732261	      1.01865290	      0.63030393	     -0.18567917	     30.77007203	     -8.69435274	    -10.62614526	    -16.41946268	     -6.55593768	    -24.21366107	      0.00000000	    -23.68283261	     -2.60963239	     20.01713342	     -7.08128881	     25.28758710	     -4.90176376	      0.00000000	    -12.61315064	     -0.34223369	    -20.05716767
      6.50000000	     -1.02762960	      0.98219176	     14.10872152	      1.03061025	      0.62896819	     -0.18316096	     32.11151825	     -7.40358278	     -9.78864038	    -20.09015906	     -6.71220369	    -24.76359014	      0.00000000	    -23.81978102	     -3.50266467	     19.14644522	     -8.48867774	     24.32492720	     -4.79490257	      0.00000000	    -12.47103788	      0.75529827	    -19.84208273
      6.51000000	     -1.15457879	      0.09721899	     13.36545837	      1.04256190	      0.62788580	     -0.18051412	     33.39450736	     -5.96974474	     -8.78514367	    -23.49143348	     -6.35279810	    -25.57128441	      0.00000000	    -23.44316454	     -4.24984579	     17.67408963	    -10.69693624	     23.69956208	     -3.54687595	      0.00000000	    -12.23433917	      1.83321328	    -19.69208186
      6.52000000	     -1.08911263	     -0.90235292	     12.59575107	      1.05466514	      0.62740766	     -0.17796623	     34.11043078	     -4.30562786	     -8.09781512	    -26.30175423	     -5.43758588	    -26.10991288	      0.00000000	    -23.20484686	     -5.06146693	     16.83631105	    -13.03216385	     22.07584289	     -3.55674840	      0.00000000	    -12.16970073	      3.17375181	    -19.67249786
      6.53000000	     -1.01080422	     -1.94126657	     11.88444458	      1.06680639	      0.62742349	     -0.17547447	     34.35341754	     -2.54280127	     -7.56916073	    -28.37351819	     -4.07265996	    -26.53074079	      0.00000000	    -22.62046683	     -5.88633278	     15.71033223	    -15.98987642	     20.34059864	     -2.84399939	      0.00000000	    -12.09319743	      4.61746188	    -19.97188839
      6.54000000	     -1.03800952	     -2.87778826	     11.23537178	      1.07890580	      0.62788739	     -0.17311510	     34.25428771	     -0.89191861	     -7.18743338	    -29.71403674	     -2.98674026	    -27.26875987	      0.00000000	    -21.69410084	     -6.53094075	     14.88077938	    -19.29406137	     17.68440480	     -2.75093071	      0.00000000	    -11.89604459	      5.95076274	    -20.38736360
      6.55000000	     -1.07529386	     -3.73177596	     10.64192580	      1.09091258	      0.62889096	     -0.17081647	     33.74153242	      0.69311307	     -6.83889772	    -30.34773778	     -1.93318581	    -27.99123478	      0.00000000	    -20.46360148	     -7.07762133	     14.05375229	    -22.95810452	     14.46845398	     -2.53660333	      0.00000000	    -11.67799897	      7.19478653	    -20.92098463
      6.56000000	     -1.13076471	     -4.50381922	     10.05579022	      1.10271783	      0.63035328	     -0.16852242	     32.95323903	      2.18790163	     -6.55799415	    -30.46625431	     -0.98805919	    -28.62862716	      0.00000000	    -18.89662687	     -7.52667750	     13.13844226	    -26.95703613	     10.88918074	     -2.44334441	      0.00000000	    -11.46581972	      8.30236848	    -21.40186173
      6.57000000	     -1.24031114	     -5.17374668	      9.43575075	      1.11420796	      0.63219005	     -0.16622720	     32.03717055	      3.55329110	     -6.31959508	    -30.24629001	     -0.15910708	    -29.09115635	      0.00000000	    -16.98607245	     -7.83879167	     12.21914359	    -31.19245471	      7.08452142	     -2.80282753	      0.00000000	    -11.25701487	      9.23663074	    -21.75365226
      6.58000000	     -1.45406266	     -5.56691517	      8.81530479	      1.12529876	      0.63435781	     -0.16404501	     31.09890189	      4.57865090	     -6.04188515	    -29.84731749	      0.76830770	    -29.21463292	      0.00000000	    -14.75876084	     -7.78444555	     11.59394086	    -35.50590097	      3.05882390	     -4.07240163	      0.00000000	    -11.01111854	      9.80656228	    -22.01680070
      6.59000000	     -1.69086526	     -5.84949285	      8.15226293	      1.13594901	      0.63676532	     -0.16191535	     30.14605172	      5.43159751	     -5.85422474	    -29.36466110	      1.80639828	    -28.81330340	      0.00000000	    -12.26229799	     -7.59919680	     10.90350015	    -39.93951285	     -0.59205848	     -5.84122635	      0.00000000	    -10.83455538	     10.20539150	    -22.03153760
      6.60000000	     -1.93679812	     -6.05264790	      7.48144213	      1.14618430	      0.63933730	     -0.15986209	     29.16860137	      6.14555368	     -5.72650907	    -28.79979625	      2.98732010	    -27.99423763	      0.00000000	     -9.57170959	     -7.32936159	     10.21110002	    -44.37926131	     -3.74348614	     -8.30012421	      0.00000000	    -10.71781714	     10.47580878	    -21.84328226
      6.61000000	     -2.15050548	     -6.19573496	      6.81780097	      1.15606477	      0.64203460	     -0.15787352	     28.11442103	      6.75938923	     -5.61845481	    -28.13412013	      4.23178913	    -26.90432902	      0.00000000	     -6.79766902	     -7.01909408	      9.51786759	    -48.69946208	     -6.33750424	    -11.39645508	      0.00000000	    -10.68222403	     10.64032643	    -21.45870128
      6.62000000	     -2.30618101	     -6.27246560	      6.15612208	      1.16566549	      0.64483631	     -0.15592515	     26.93614232	      7.29023999	     -5.47254683	    -27.33770744	      5.40977220	    -25.73323997	      0.00000000	     -4.03854058	     -6.67450699	      8.82305181	    -52.77733398	     -8.27912763	    -14.93182548	      0.00000000	    -10.73695029	     10.68366524	    -20.88143456
      6.63000000	     -2.39685177	     -6.23435774	      5.47285712	      1.17505930	      0.64774218	     -0.15396847	     25.61234482	      7.71605075	     -5.20469197	    -26.40510020	      6.45752666	    -24.58045072	      0.00000000	     -1.36153475	     -6.25248190	      8.11737717	    -56.50458539	     -9.55486556	    -18.45842545	      0.00000000	    -10.87210434	     10.53694440	    -20.14626917
